<svg width="164" height="97" viewBox="0 0 164 97" fill="none" xmlns="http://www.w3.org/2000/svg">
<path d="M102.865 13.2576C102.88 12.5558 102.703 11.863 102.353 11.2547C101.985 10.6574 101.465 10.1689 100.846 9.83941C95.2704 6.76092 89.6925 3.68403 84.112 0.60876C83.4391 0.203983 82.6674 -0.00665981 81.8822 0.00016052C81.097 0.00698085 80.329 0.230999 79.6633 0.647403C77.4446 1.90166 66.3398 7.99747 63.0294 9.83458C62.3995 10.151 61.8736 10.6416 61.5143 11.2481C61.1549 11.8546 60.9773 12.5515 61.0023 13.256V31.8349C60.9861 32.5209 61.1528 33.1989 61.4854 33.7992C61.8551 34.4136 62.3864 34.9149 63.0214 35.2483C66.3317 37.0854 77.4381 43.1812 79.6568 44.4354C80.3223 44.8523 81.0901 45.0769 81.8753 45.0843C82.6605 45.0917 83.4324 44.8816 84.1055 44.4773C89.6764 41.3956 95.2506 38.3187 100.828 35.2466C101.463 34.9128 101.995 34.4117 102.366 33.7976C102.698 33.1973 102.865 32.5193 102.849 31.8333V13.2576" fill="#CFCFCF"/>
<path d="M102.139 34.0906C102.223 33.9973 102.302 33.8995 102.375 33.7975C102.708 33.1973 102.874 32.5193 102.858 31.8332V13.2576C102.874 12.5557 102.697 11.863 102.346 11.2547C102.288 11.1597 102.203 11.0856 102.137 10.997L81.9335 22.5446L102.139 34.0906Z" fill="#B4B4B4"/>
<path d="M102.139 34.0906L81.9335 22.5446L61.7285 34.0906C62.0702 34.5699 62.5154 34.9661 63.0311 35.2498C66.3414 37.087 77.4478 43.1828 79.6665 44.437C80.3319 44.8539 81.0998 45.0785 81.8849 45.0859C82.6701 45.0933 83.442 44.8832 84.1152 44.4789C89.6861 41.3972 95.2602 38.3203 100.838 35.2482C101.353 34.965 101.797 34.5693 102.139 34.0906Z" fill="#A5A5A5"/>
<path d="M87.7298 25.7971C87.0126 27.0726 85.8939 28.0752 84.5477 28.6489C83.2015 29.2226 81.7034 29.3352 80.2866 28.9692C78.8698 28.6031 77.6137 27.779 76.7139 26.625C75.8141 25.4711 75.321 24.052 75.3113 22.5887C75.3016 21.1254 75.776 19.7 76.6605 18.5343C77.545 17.3685 78.79 16.5279 80.2019 16.1431C81.6137 15.7584 83.1132 15.8512 84.4668 16.4071C85.8204 16.963 86.9524 17.9507 87.6864 19.2166L93.5069 15.8789C92.0295 13.3435 89.7594 11.3641 87.0464 10.2458C84.3334 9.12743 81.328 8.9321 78.4931 9.68989C75.6581 10.4477 73.151 12.1165 71.3579 14.4394C69.5647 16.7623 68.5851 19.6103 68.5698 22.5447C68.5669 24.8716 69.1778 27.1581 70.3409 29.1734C71.5186 31.209 73.2116 32.8986 75.2495 34.0724C77.2875 35.2461 79.5985 35.8626 81.9503 35.8598C84.302 35.857 86.6116 35.2351 88.6468 34.0566C90.6819 32.878 92.3709 31.1844 93.5439 29.1461L87.7298 25.7971Z" fill="white"/>
<path d="M94.9366 21.8009H93.4457V20.318H91.9563V21.8009H90.4654V23.287H91.9563V24.7683H93.4457V23.287H94.9366V21.8009Z" fill="white"/>
<path d="M100.528 21.8009H99.0375V20.318H97.5466V21.8009H96.0556V23.287H97.5466V24.7683H99.0375V23.287H100.528V21.8009Z" fill="white"/>
<path d="M142.387 1.01762C131.962 1.01762 132.622 5.52524 132.622 5.52524V10.2091H142.535V11.6773H128.673C128.673 11.6773 122 10.8551 122 21.4341C122 32.013 127.892 31.5828 127.892 31.5828H131.294V26.6479C131.294 26.6479 131.103 20.7557 137.021 20.7557H146.949C146.949 20.7557 152.487 20.8438 152.487 15.3936V6.45026C152.487 6.45026 153.327 1 142.441 1L142.387 1.01762ZM136.907 4.15534C137.26 4.14645 137.607 4.24227 137.905 4.43069C138.203 4.61911 138.438 4.89167 138.582 5.21389C138.725 5.53611 138.769 5.89353 138.709 6.24093C138.649 6.58834 138.487 6.91013 138.244 7.16561C138.001 7.42109 137.688 7.59879 137.344 7.67623C137 7.75367 136.641 7.72737 136.312 7.60066C135.983 7.47396 135.699 7.25253 135.496 6.96439C135.292 6.67624 135.179 6.33433 135.17 5.98188V5.95251C135.17 5.47977 135.358 5.02638 135.693 4.6921C136.027 4.35782 136.48 4.17002 136.953 4.17002L136.907 4.15534Z" fill="white"/>
<path d="M142.681 41.8505C153.106 41.8505 152.446 37.3282 152.446 37.3282V32.6591H142.534V31.1908H156.439C156.439 31.1908 163.112 31.9367 163.112 21.4194C163.112 10.9021 157.22 11.2706 157.22 11.2706H153.774V16.1409C153.774 16.1409 153.964 22.0331 148.047 22.0331H138.114C138.114 22.0331 132.572 21.9495 132.572 27.3997V36.4032C132.572 36.4032 131.732 41.8535 142.618 41.8535H142.676L142.681 41.8505ZM148.16 38.6981C147.808 38.707 147.461 38.6112 147.163 38.4228C146.865 38.2344 146.629 37.9618 146.486 37.6396C146.343 37.3174 146.299 36.96 146.359 36.6125C146.419 36.2651 146.581 35.9433 146.824 35.6879C147.067 35.4324 147.38 35.2547 147.724 35.1773C148.068 35.0998 148.427 35.1261 148.756 35.2528C149.085 35.3795 149.369 35.6009 149.572 35.8891C149.775 36.1772 149.888 36.5191 149.897 36.8716V36.9156C149.897 37.3884 149.71 37.8418 149.375 38.1761C149.041 38.5103 148.588 38.6981 148.115 38.6981H148.16Z" fill="#A9A9A9"/>
<path d="M62.134 75.4791C62.8572 75.3881 63.5912 75.4414 64.2937 75.6358C64.9961 75.8303 65.6531 76.162 66.2266 76.6119C66.5967 77.1819 66.8326 77.8284 66.9167 78.5027C67.0008 79.1771 66.9308 79.8617 66.7121 80.5051C66.5202 82.0891 65.7542 83.5477 64.5591 84.6048C63.1178 85.5332 61.4141 85.9686 59.7042 85.8455H56.4207L58.4377 75.5002L62.134 75.4791ZM49 96.3199H54.3943L55.6725 89.7529H60.2858C61.9854 89.7962 63.6815 89.577 65.3143 89.1032C66.6553 88.6605 67.881 87.9251 68.9027 86.9502C70.6697 85.3613 71.8606 83.2318 72.2894 80.8945C72.6278 79.7311 72.6874 78.5044 72.4633 77.3138C72.2392 76.1231 71.7377 75.002 70.9994 74.0413C70.1094 73.1593 69.0375 72.4822 67.8587 72.0572C66.6799 71.6323 65.4226 71.4698 64.1744 71.5811H53.8244L49 96.3199Z" fill="white"/>
<path d="M76.246 65H81.6005L80.3035 71.567H85.0669C87.2554 71.3379 89.454 71.894 91.2704 73.136C91.8713 73.8192 92.2822 74.6484 92.4616 75.5404C92.6411 76.4324 92.5829 77.356 92.2929 78.2184L90.0555 89.7318H84.6377L86.7673 78.786C86.9154 78.3684 86.9683 77.9229 86.9221 77.4822C86.8758 77.0415 86.7316 76.6167 86.4999 76.2389C85.7236 75.6819 84.764 75.442 83.8168 75.5682H79.5412L76.7855 89.7435H71.4193L76.246 65Z" fill="white"/>
<path d="M104.207 75.479C104.931 75.3881 105.665 75.4414 106.367 75.6358C107.07 75.8303 107.726 76.162 108.3 76.6118C108.67 77.1818 108.906 77.8283 108.99 78.5027C109.074 79.1771 109.004 79.8617 108.785 80.5051C108.594 82.0891 107.828 83.5477 106.632 84.6048C105.189 85.5352 103.481 85.9706 101.768 85.8455H98.487L100.499 75.4884L104.207 75.479ZM91.0734 96.3198H96.4677L97.7459 89.7529H102.362C104.064 89.7971 105.764 89.578 107.399 89.1032C108.74 88.6605 109.966 87.925 110.988 86.9502C112.75 85.3595 113.937 83.2302 114.363 80.8944C114.701 79.7311 114.761 78.5044 114.537 77.3137C114.313 76.1231 113.811 75.002 113.073 74.0413C112.182 73.1609 111.111 72.4852 109.932 72.0615C108.754 71.6378 107.497 71.4763 106.25 71.5881H95.8837L91.0734 96.3198Z" fill="white"/>
<path d="M20.7527 46.8036C20.1213 46.8038 19.5009 46.6378 18.9541 46.3222L13.2306 42.9339C12.3764 42.4558 12.7926 42.287 13.0751 42.1884C13.9836 41.9077 14.8534 41.5146 15.6644 41.0183C15.7323 40.9869 15.807 40.9733 15.8816 40.9789C15.9562 40.9844 16.0282 41.0089 16.0906 41.05L20.4886 43.6627C20.5705 43.706 20.6617 43.7287 20.7544 43.7287C20.847 43.7287 20.9382 43.706 21.0201 43.6627L38.1706 33.7636C38.2508 33.7155 38.3172 33.6474 38.3632 33.5659C38.4092 33.4845 38.4333 33.3925 38.433 33.2989V13.4974C38.433 13.4023 38.4086 13.3089 38.3621 13.226C38.3155 13.1432 38.2484 13.0737 38.1672 13.0243L21.0168 3.13356C20.9359 3.08802 20.8447 3.06409 20.7518 3.06409C20.659 3.06409 20.5678 3.08802 20.4869 3.13356L3.34652 13.0276C3.26476 13.076 3.19687 13.1446 3.14943 13.2269C3.10198 13.3092 3.0766 13.4024 3.07572 13.4974V33.2905C3.07595 33.3839 3.101 33.4755 3.14829 33.556C3.19558 33.6365 3.26341 33.7029 3.34484 33.7486L8.04867 36.4632C10.5978 37.7369 12.1591 36.2359 12.1591 34.7281V15.1857C12.1591 15.1198 12.1721 15.0546 12.1973 14.9938C12.2225 14.9329 12.2594 14.8776 12.306 14.8311C12.3525 14.7845 12.4078 14.7476 12.4687 14.7224C12.5295 14.6972 12.5947 14.6842 12.6606 14.6842H14.8336C14.9666 14.6842 15.0942 14.737 15.1882 14.8311C15.2823 14.9251 15.3351 15.0527 15.3351 15.1857V34.7298C15.3351 38.1314 13.483 40.0788 10.2568 40.0788C8.86503 40.1031 7.49506 39.7309 6.30688 39.0057L1.79863 36.4197C1.25134 36.101 0.797217 35.6443 0.481607 35.0952C0.165997 34.5461 -6.0589e-05 33.9239 1.1888e-05 33.2905V13.4974C-0.00161487 12.863 0.16374 12.2395 0.479461 11.6893C0.795181 11.1391 1.25014 10.6818 1.79863 10.3631L18.9507 0.460706C19.5032 0.15843 20.1229 0 20.7527 0C21.3825 0 22.0021 0.15843 22.5546 0.460706L39.7051 10.3631C40.2523 10.6812 40.7065 11.1373 41.0224 11.6858C41.3383 12.2343 41.5048 12.856 41.5054 13.489V33.2905C41.5044 33.9239 41.3378 34.5459 41.0219 35.0949C40.7061 35.6439 40.2521 36.1006 39.7051 36.4197L22.5546 46.3222C22.0068 46.6383 21.3852 46.8043 20.7527 46.8036Z" fill="white"/>
<path d="M17.4998 26.6661C17.4998 26.5331 17.5526 26.4055 17.6467 26.3115C17.7407 26.2174 17.8683 26.1646 18.0013 26.1646H20.2195C20.338 26.165 20.4525 26.2073 20.5428 26.2841C20.6331 26.3609 20.6932 26.4672 20.7126 26.5842C21.0469 28.8425 22.0498 29.9808 26.5848 29.9808C30.1971 29.9808 31.7366 29.1634 31.7366 27.2461C31.7366 26.1412 31.3004 25.3205 25.6855 24.7705C20.9917 24.3058 18.0899 23.2661 18.0899 19.5151C18.0899 16.0549 21.0068 13.9905 25.8961 13.9905C31.3906 13.9905 34.1103 15.8978 34.4546 19.9898C34.4599 20.0581 34.4511 20.1268 34.4288 20.1916C34.4065 20.2563 34.3711 20.3159 34.3249 20.3665C34.2787 20.4171 34.2226 20.4576 34.1601 20.4857C34.0976 20.5138 34.03 20.5288 33.9615 20.5297H31.7283C31.6163 20.5281 31.508 20.4891 31.4207 20.4188C31.3335 20.3485 31.2723 20.251 31.2469 20.1419C30.7136 17.7666 29.4081 17.0077 25.8978 17.0077C21.9529 17.0077 21.4949 18.3817 21.4949 19.4114C21.4949 20.6584 22.0365 21.0228 27.3621 21.7266C32.6326 22.4236 35.1366 23.4098 35.1366 27.1141C35.1366 30.8517 32.0208 32.9913 26.5865 32.9913C19.0728 33.0014 17.4998 29.5562 17.4998 26.6661Z" fill="white"/>
</svg>
