<svg width="258" height="123" viewBox="0 0 258 123" fill="none" xmlns="http://www.w3.org/2000/svg">
<path d="M38.9139 44.2284C33.3529 44.3105 28.05 45.3491 23.1119 47.1896L23.4542 47.0781C16.7503 49.4643 16.5558 50.3738 10.4804 49.6266C7.26689 49.1122 4.37323 48.1597 1.6928 46.818L1.87985 46.9021C5.05222 49.5738 8.9597 51.4241 13.2357 52.0852L13.3647 52.1008C17.9362 51.8094 22.171 50.5655 25.9738 48.5568L25.7886 48.6448C29.9317 47.1309 34.7071 46.2547 39.6789 46.2547C39.9352 46.2547 40.1896 46.2567 40.444 46.2625H40.4065C46.8354 46.685 52.836 47.7549 58.6009 49.4193L57.9799 49.2668C54.6298 47.5945 50.7055 46.151 46.6185 45.1457L46.2144 45.0616C44.069 44.5335 41.6055 44.2304 39.0747 44.2304C39.0186 44.2304 38.9625 44.2304 38.9064 44.2304H38.9158L38.9139 44.2284ZM53.4364 34.2612L11.5485 41.7131C13.6565 42.4935 15.1417 44.5589 15.1417 46.9882C15.1417 47.0703 15.1398 47.1524 15.1361 47.2326V47.2209C15.1155 47.7607 15.0276 48.2693 14.878 48.7524L14.8892 48.7132C19.1277 46.6772 24.0846 44.9619 29.2453 43.8274L29.7129 43.7414C32.4775 43.0842 35.6517 42.7087 38.9101 42.7087C40.8461 42.7087 42.754 42.8417 44.6227 43.0999L44.4038 43.0744C46.1022 38.9299 49.3326 35.7575 53.3298 34.2945L53.4364 34.2612ZM18.8023 10.55C18.8023 10.55 24.4269 13.1553 26.5761 24.1082C27.0175 25.7903 27.2719 27.7227 27.2719 29.7157C27.2719 32.7845 26.6715 35.7066 25.5847 38.3608L25.6371 38.218C28.7197 35.1668 32.8909 33.2931 37.4811 33.2931C39.0785 33.2931 40.6235 33.5199 42.0919 33.9444L41.9703 33.915C41.1061 28.3212 38.8353 23.3963 35.5526 19.4063L35.5844 19.4454C31.604 14.2154 25.6071 10.818 18.8434 10.55H18.8023ZM14.6479 10.4601C17.549 14.8002 19.4289 20.0908 19.8236 25.8118L19.8292 25.9116C19.8909 26.6626 19.9246 27.5349 19.9246 28.417C19.9246 32.1195 19.3148 35.6734 18.1925 38.9729L18.258 38.7519C19.9526 36.6474 22.4011 35.2548 25.1638 35.0318L25.1975 35.0299C25.3135 35.0201 25.4294 35.0142 25.5435 35.0103C25.6988 33.8309 25.7867 32.4677 25.7867 31.0829C25.7867 26.5922 24.8552 22.3284 23.1848 18.4929L23.2597 18.6826C21.6417 14.7728 18.5535 11.7999 14.7452 10.4875L14.646 10.4581L14.6479 10.4601Z" fill="white"/>
<path d="M139.559 39.5057V42.4607C139.559 47.8159 133.909 53.3545 127.021 53.3545H89.9384C82.9632 53.3545 77.4 47.9065 77.4 42.4584V39.5057H139.559Z" fill="#565453"/>
<path d="M101.327 10.7912C104.388 10.7798 107.387 11.6992 109.957 13.4376C112.528 15.176 114.56 17.6584 115.805 20.5825C117.157 19.6149 118.758 19.1 120.396 19.1061C122.488 19.0836 124.504 19.9236 126.008 21.4443C127.512 22.9649 128.382 25.0438 128.43 27.2307C131.31 27.5785 133.988 28.9516 136.014 31.1194C138.041 33.2873 139.292 36.1181 139.559 39.1366V40.2439C139.559 45.6919 133.909 51.1377 126.932 51.1377H89.9384C82.9632 51.1377 77.4 45.6896 77.4 40.2439V39.1366C77.546 36.6452 78.3838 34.2525 79.8108 32.2515C81.2378 30.2506 83.1921 28.7283 85.434 27.8713V27.4071C85.4255 25.2224 85.8308 23.0575 86.6265 21.0374C87.4222 19.0173 88.5926 17.1819 90.0701 15.6372C91.5476 14.0925 93.303 12.869 95.235 12.0372C97.167 11.2055 99.2374 10.782 101.327 10.7912Z" fill="white"/>
<path d="M92.9397 30.0882L88.7906 45.23H91.2614L92.2338 41.5368H96.4717L97.3597 45.23H99.8216L95.9367 30.0882H92.9397ZM92.5867 39.6055L94.3627 32.1263L96.041 39.6055H92.5867Z" fill="#444444"/>
<path d="M110.244 41.9988H110.158L108.215 30.0882H105.742L103.889 41.9059H103.8L101.857 30.0882H99.5618L102.388 45.3205H105.036L106.89 33.8742H106.979L108.832 45.3205H111.57L114.484 30.0882H112.1L110.244 41.9988Z" fill="#444444"/>
<path d="M121.988 37.0126L120.398 36.4578C118.809 35.8125 118.192 35.065 118.192 33.7814C118.162 33.4901 118.192 33.1956 118.278 32.917C118.365 32.6383 118.506 32.3818 118.693 32.1641C118.881 31.9464 119.11 31.7722 119.366 31.6531C119.622 31.5339 119.899 31.4723 120.179 31.4723C120.459 31.4723 120.736 31.5339 120.992 31.6531C121.248 31.7722 121.477 31.9464 121.664 32.1641C121.851 32.3818 121.993 32.6383 122.079 32.917C122.166 33.1956 122.195 33.4901 122.166 33.7814V34.0576H124.463V33.6885C124.463 32.1193 124.11 29.7191 120.314 29.7191C119.735 29.64 119.146 29.6947 118.589 29.8794C118.032 30.064 117.521 30.374 117.091 30.7877C116.661 31.2013 116.323 31.7085 116.101 32.2734C115.879 32.8384 115.778 33.4474 115.805 34.0576C115.755 35.0233 116.04 35.9754 116.608 36.7388C117.176 37.5023 117.988 38.0256 118.896 38.2127L120.485 38.7675C121.096 38.8514 121.654 39.174 122.048 39.6704C122.441 40.1668 122.64 40.8004 122.605 41.444C122.614 41.7455 122.563 42.0456 122.454 42.3249C122.345 42.6043 122.181 42.8566 121.973 43.0656C121.765 43.2745 121.518 43.4355 121.246 43.5381C120.975 43.6406 120.686 43.6824 120.398 43.6608C118.809 43.6608 118.014 42.7377 118.014 40.8915V40.5224H115.719V40.8915C115.646 41.5161 115.71 42.1498 115.906 42.7446C116.102 43.3395 116.425 43.8798 116.851 44.3247C117.276 44.7697 117.793 45.1075 118.362 45.3126C118.931 45.5177 119.537 45.5847 120.134 45.5086C123.047 45.5086 124.989 44.2156 124.989 40.9844C125.002 40.0625 124.71 39.1643 124.163 38.4409C123.617 37.7175 122.849 37.2131 121.988 37.0126Z" fill="#444444"/>
<path d="M179.791 51.0639L178.758 50.7057C178.758 50.7057 178.896 45.2401 177.005 44.8561C175.767 43.3488 177.188 -19.4955 181.713 44.6418C180.854 45.0972 180.197 45.8821 179.88 46.8324C179.709 48.2358 179.68 49.654 179.791 51.0639Z" fill="#9A9A9A"/>
<path d="M180.35 45.7838C183.1 43.6189 185.207 40.6821 186.424 37.3149C187.642 33.9477 187.92 30.2883 187.228 26.7621C185.206 17.4347 180.417 14.3682 179.902 13.1974C179.456 12.4684 179.077 11.698 178.767 10.8961L179.148 36.885C179.148 36.885 178.358 44.8274 180.35 45.7838Z" fill="#BFBFBF"/>
<path d="M178.233 46.129C178.233 46.129 169.813 40.1327 170.3 29.5251C170.346 26.3272 171.047 23.1768 172.357 20.2866C173.666 17.3963 175.554 14.8337 177.892 12.7716C178.165 12.5289 178.382 12.2246 178.527 11.8816C178.671 11.5385 178.74 11.1657 178.727 10.7911C179.251 11.9705 179.166 28.4004 179.221 30.3219C179.434 37.7969 178.823 44.718 178.233 46.129Z" fill="white"/>
<path fill-rule="evenodd" clip-rule="evenodd" d="M228.416 19.95C228.046 19.9487 227.678 19.9978 227.321 20.0958V20.1468H227.374C227.63 20.5508 227.915 20.9335 228.227 21.2915C228.442 21.7378 228.629 22.1825 228.842 22.6287C228.869 22.601 228.895 22.5719 228.895 22.5719C229.093 22.4074 229.248 22.1932 229.346 21.9492C229.443 21.7052 229.48 21.4393 229.453 21.1763C229.336 20.988 229.229 20.7933 229.132 20.593C228.972 20.3145 228.625 20.1745 228.411 19.9514" fill="white"/>
<path fill-rule="evenodd" clip-rule="evenodd" d="M254.905 44.2849C253.146 44.1557 251.381 44.4222 249.729 45.0665C249.329 45.2342 248.69 45.2342 248.634 45.7636C248.849 45.9867 248.874 46.3469 249.062 46.6575C249.427 47.3041 249.897 47.8799 250.45 48.3592C251.008 48.8054 251.565 49.2502 252.158 49.641C253.197 50.3133 254.373 50.7026 255.385 51.3719C255.974 51.7627 256.559 52.2644 257.148 52.6843C257.441 52.9075 257.626 53.2676 258 53.4135V53.3289C257.89 53.019 257.754 52.7199 257.594 52.435C257.328 52.1579 257.06 51.9056 256.792 51.6271C256.01 50.5455 255.074 49.5954 254.017 48.8098C253.162 48.1944 251.294 47.3516 250.949 46.3308L250.895 46.274C251.52 46.1813 252.137 46.031 252.737 45.8248C253.643 45.574 254.47 45.6309 255.403 45.3874C255.831 45.2751 256.605 44.9965 256.605 44.9965V44.5591C256.128 44.0633 255.787 43.3998 255.285 42.9317C253.919 41.685 252.463 40.55 250.931 39.5369C250.112 38.9843 249.057 38.6284 248.185 38.1574C247.87 37.9912 247.348 37.9095 247.157 37.6325C246.724 36.9675 246.361 36.2551 246.075 35.5078C245.311 33.9913 244.57 32.3099 243.912 30.7059C243.522 29.6309 243.073 28.5806 242.566 27.5605C240.121 23.2127 236.591 19.642 232.354 17.2304C231.285 16.6893 230.148 16.3083 228.978 16.0988C228.317 16.0696 227.658 16.0156 226.999 15.9894C226.573 15.6977 226.168 15.3741 225.787 15.0211C224.278 14.0222 220.401 11.8757 219.291 14.7178C218.58 16.5129 220.348 18.2774 220.955 19.1888C221.466 19.8314 221.917 20.5244 222.3 21.258C222.486 21.7275 222.539 22.2248 222.719 22.7162C223.106 23.9777 223.565 25.2137 224.095 26.4172C224.378 27.0121 224.705 27.5834 225.071 28.1263C225.285 28.431 225.653 28.5637 225.732 29.0668C225.44 29.7241 225.235 30.4204 225.124 31.1361C224.663 32.6583 224.494 34.2606 224.625 35.8514C224.756 37.4422 225.186 38.9904 225.89 40.4075C226.308 41.0972 227.315 42.6153 228.661 42.0349C229.848 41.5391 229.584 39.9656 229.927 38.5876C230.005 38.2537 229.954 38.0349 230.111 37.8148V38.0831C230.111 38.0831 230.785 39.6303 231.12 40.4162C232.03 41.8584 233.161 43.1344 234.467 44.1931C234.983 44.6647 235.399 45.2444 235.688 45.8948V46.395H236.284C236.271 46.1695 236.212 45.9496 236.109 45.751C236.006 45.5524 235.862 45.3799 235.688 45.2459C235.2 44.7203 234.753 44.1547 234.351 43.5544C233.259 41.9287 232.297 40.2125 231.472 38.4228C231.054 37.5479 230.701 36.5884 230.367 35.7149C230.213 35.378 230.213 34.8691 229.955 34.6941C229.479 35.2835 229.065 35.9255 228.722 36.6088C228.306 37.9898 228.064 39.4217 228.001 40.8683C227.9 40.8975 227.95 40.8683 227.9 40.9237C227.078 40.6977 226.795 39.7688 226.485 38.9813C225.686 36.5527 225.605 33.9283 226.254 31.451C226.432 30.8604 227.206 28.9997 226.897 28.4354C226.742 27.8973 226.227 27.5896 225.946 27.1653C225.586 26.5944 225.277 25.9907 225.021 25.3615C224.409 23.7924 224.099 22.0425 223.433 20.4618C223.064 19.7016 222.634 18.9752 222.148 18.2905C221.611 17.6065 221.137 16.8707 220.733 16.0929C220.605 15.7823 220.425 15.2749 220.63 14.9366C220.643 14.8426 220.686 14.7559 220.751 14.6896C220.817 14.6233 220.901 14.581 220.991 14.5691C221.323 14.2599 222.275 14.6537 222.609 14.8228C223.504 15.1916 224.358 15.6646 225.152 16.2329C225.512 16.5158 226.36 17.2318 226.36 17.2318H226.611C227.464 17.4258 228.424 17.2858 229.227 17.538C230.58 18.0095 231.87 18.6561 233.069 19.4629C236.603 21.8182 239.475 25.1116 241.393 29.007C241.714 29.6472 241.849 30.2349 242.142 30.9027C242.7 32.2735 243.397 33.6734 243.955 35.0062C244.447 36.3249 245.084 37.5795 245.852 38.7451C246.251 39.3284 247.853 39.6375 248.574 39.9438C249.2 40.1703 249.815 40.4307 250.415 40.7239C251.323 41.3072 252.228 41.9795 253.083 42.6196C253.508 42.955 254.843 43.6521 254.924 44.2106" fill="white"/>
<path d="M124.577 106.671V117.403C124.577 120.365 131.982 122.768 141.117 122.768C150.252 122.768 157.657 120.365 157.657 117.403V106.671H124.577Z" fill="#606060"/>
<path d="M124.577 94.8668V106.671C124.577 109.634 131.982 112.036 141.117 112.036C150.252 112.036 157.657 109.634 157.657 106.671V94.8668H124.577Z" fill="#727272"/>
<path d="M124.577 83.061V94.8668C124.577 97.8287 131.982 100.232 141.117 100.232C150.252 100.232 157.657 97.8287 157.657 94.8668V83.061H124.577Z" fill="#B7B7B7"/>
<path d="M141.117 88.4263C150.252 88.4263 157.657 86.0242 157.657 83.061C157.657 80.0979 150.252 77.6958 141.117 77.6958C131.982 77.6958 124.577 80.0979 124.577 83.061C124.577 86.0242 131.982 88.4263 141.117 88.4263Z" fill="#DBDBDB"/>
<path opacity="0.1" d="M136.773 87.3542H124.577V114.184H136.773C137.265 114.176 137.735 113.965 138.08 113.596C138.424 113.228 138.615 112.732 138.611 112.216V89.3213C138.615 88.806 138.424 88.31 138.08 87.9415C137.735 87.5729 137.265 87.3618 136.773 87.3542Z" fill="black"/>
<path opacity="0.2" d="M135.771 88.4279H124.577V115.256H135.771C136.263 115.248 136.733 115.037 137.077 114.668C137.422 114.3 137.613 113.804 137.609 113.289V90.3949C137.613 89.8797 137.422 89.3837 137.077 89.0152C136.733 88.6466 136.263 88.4355 135.771 88.4279Z" fill="black"/>
<path opacity="0.2" d="M135.771 88.4279H124.577V113.11H135.771C136.263 113.102 136.733 112.891 137.077 112.523C137.422 112.154 137.613 111.658 137.609 111.143V90.3949C137.613 89.8797 137.422 89.3837 137.077 89.0152C136.733 88.6466 136.263 88.4355 135.771 88.4279Z" fill="black"/>
<path opacity="0.2" d="M134.768 88.4279H124.577V113.11H134.768C135.261 113.102 135.731 112.891 136.075 112.522C136.419 112.154 136.61 111.658 136.606 111.143V90.3949C136.61 89.8798 136.419 89.3841 136.075 89.0156C135.731 88.6472 135.261 88.4359 134.768 88.4279Z" fill="black"/>
<path d="M116.39 88.4279H134.768C135.013 88.4308 135.254 88.484 135.478 88.5845C135.703 88.6849 135.906 88.8306 136.077 89.0133C136.248 89.196 136.382 89.412 136.473 89.6491C136.564 89.8861 136.609 90.1396 136.606 90.3949V110.069C136.609 110.324 136.564 110.578 136.473 110.815C136.382 111.052 136.248 111.268 136.077 111.451C135.906 111.633 135.703 111.779 135.478 111.88C135.254 111.98 135.013 112.033 134.768 112.036H116.39C116.146 112.033 115.905 111.98 115.68 111.88C115.456 111.779 115.252 111.633 115.082 111.451C114.911 111.268 114.776 111.052 114.685 110.815C114.595 110.578 114.549 110.324 114.552 110.069V90.3949C114.549 90.1396 114.595 89.8861 114.685 89.6491C114.776 89.412 114.911 89.196 115.082 89.0133C115.252 88.8306 115.456 88.6849 115.68 88.5845C115.905 88.484 116.146 88.4308 116.39 88.4279Z" fill="white"/>
<path d="M124.258 93.8365H126.965L131.314 106.626H128.758L127.799 103.575H123.327L122.386 106.626H119.843L124.258 93.8365ZM127.223 101.605L125.838 96.9771C125.724 96.6374 125.639 96.2878 125.584 95.9324H125.528C125.477 96.2997 125.394 96.6613 125.279 97.0125L123.875 101.615L127.223 101.605Z" fill="#4D4D4D"/>
</svg>
