<svg width="24" height="27" viewBox="0 0 24 27" fill="none" xmlns="http://www.w3.org/2000/svg">
<path d="M20.8102 14.1927L11.7771 22.4884L2.76081 13.8855C2.59071 13.7241 2.39444 13.6025 2.18319 13.5277C1.97194 13.4529 1.74985 13.4263 1.52961 13.4495C1.30937 13.4727 1.09528 13.5452 0.899573 13.6628C0.703866 13.7805 0.53037 13.9409 0.388993 14.1351C0.247617 14.3293 0.141127 14.5534 0.0756035 14.7945C0.0100804 15.0357 -0.0131929 15.2892 0.00711324 15.5406C0.0274194 15.7921 0.0909071 16.0365 0.193951 16.2599C0.296995 16.4833 0.437577 16.6813 0.607672 16.8427L10.7005 26.4443C11.0015 26.7267 11.379 26.8811 11.7687 26.8811C12.1583 26.8811 12.5358 26.7267 12.8368 26.4443L22.9296 17.1692C23.1024 17.0107 23.2461 16.8148 23.3524 16.5928C23.4586 16.3707 23.5254 16.1269 23.5489 15.8753C23.5723 15.6236 23.552 15.3692 23.489 15.1266C23.426 14.884 23.3217 14.658 23.182 14.4616C23.0419 14.2657 22.8694 14.1033 22.6743 13.9838C22.4792 13.8642 22.2653 13.7898 22.045 13.7648C21.8246 13.7399 21.6021 13.7648 21.3902 13.8382C21.1783 13.9117 20.9812 14.0321 20.8102 14.1927Z" fill="url(#paint0_linear_47_3150)"/>
<path d="M10.7005 13.0029C11.0015 13.2853 11.379 13.4397 11.7687 13.4397C12.1583 13.4397 12.5358 13.2853 12.8368 13.0029L22.9296 3.72779C23.1024 3.56932 23.2461 3.37343 23.3524 3.15137C23.4586 2.92932 23.5254 2.68547 23.5489 2.43386C23.5723 2.18224 23.552 1.92782 23.489 1.68521C23.426 1.4426 23.3217 1.21659 23.182 1.02017C23.0431 0.822899 22.8716 0.658895 22.677 0.537583C22.4825 0.41627 22.2689 0.340039 22.0485 0.313271C21.8281 0.286504 21.6052 0.309728 21.3927 0.381608C21.1802 0.453488 20.9822 0.572608 20.8102 0.73212L11.7771 9.04703L2.76081 0.444074C2.41729 0.118125 1.97442 -0.0386907 1.52962 0.00812576C1.08481 0.0549422 0.674522 0.301556 0.388998 0.693714C0.103475 1.08587 -0.0338921 1.59145 0.00711797 2.09923C0.048128 2.60701 0.264156 3.07539 0.607676 3.40134L10.7005 13.0029Z" fill="url(#paint1_linear_47_3150)"/>
<defs>
<linearGradient id="paint0_linear_47_3150" x1="11.7792" y1="13.4414" x2="11.7792" y2="26.8811" gradientUnits="userSpaceOnUse">
<stop stop-color="#51DEEB"/>
<stop offset="1" stop-color="#777FFF"/>
</linearGradient>
<linearGradient id="paint1_linear_47_3150" x1="11.7792" y1="0" x2="11.7792" y2="13.4397" gradientUnits="userSpaceOnUse">
<stop stop-color="#51DEEB"/>
<stop offset="1" stop-color="#777FFF"/>
</linearGradient>
</defs>
</svg>
