<svg width="221" height="112" viewBox="0 0 221 112" fill="none" xmlns="http://www.w3.org/2000/svg">
<path d="M3.3871 38.7592L0 0H37.2174L33.8258 38.7531L18.5861 43.0641L3.3871 38.7592Z" fill="#EDE2DF"/>
<path d="M18.6089 39.7698L30.9242 36.2862L33.8214 3.16992H18.6089V39.7698Z" fill="#F3FCFF"/>
<path d="M18.609 17.5436H12.4438L12.0187 12.6758H18.609V7.92188H18.5924H6.92676L7.03831 9.19842L8.18241 22.2976H18.609V17.5436Z" fill="black"/>
<path d="M18.6087 29.8896L18.5876 29.8958L13.3992 28.467L13.0676 24.6758H10.5457H8.39014L9.04284 32.1382L18.5876 34.842L18.6087 34.8358V29.8896Z" fill="black"/>
<path d="M18.5913 17.5439V22.2979H24.3284L23.7888 28.4638L18.5913 29.8941V34.8403L28.1436 32.1381L28.213 31.3352L29.3073 18.8205L29.4219 17.5439H28.1662H18.5913Z" fill="#252323"/>
<path d="M18.5913 7.92188V10.8748V12.6651V12.6758H29.8304H29.8455L29.9389 11.6085L30.1515 9.19842L30.263 7.92188H18.5913Z" fill="#252323"/>
<path d="M62.2448 38.7592L58.9277 0H95.389L92.0675 38.7531L77.1362 43.0641L62.2448 38.7592Z" fill="#BEBEBE"/>
<path d="M77.1582 39.7698L89.2243 36.2862L92.0629 3.16992H77.1582V39.7698Z" fill="#F3FCFF"/>
<path d="M77.1582 17.2116H83.1986L83.6151 12.3438H77.1582V7.58984H77.1744H88.604L88.4947 8.86485L87.3738 21.9656H77.1582V17.2116Z" fill="#252323"/>
<path d="M77.1861 29.5572L77.1654 29.5633L72.082 28.133L71.7571 24.3418H69.2863H67.1743L67.8138 31.8057L77.1639 34.5095L77.1861 34.5034V29.5572Z" fill="black"/>
<path d="M82.8106 21.7627L82.2612 28.1285L77.1704 29.5588V34.5051L86.5279 31.8043L86.5973 31.0015L87.3904 21.7627H82.8106Z" fill="#252323"/>
<path d="M77.1743 7.58984V10.5428V12.3315V12.3438H66.1626H66.1479L66.0563 11.2749L65.8481 8.86485L65.7388 7.58984H77.1743Z" fill="black"/>
<path d="M77.1575 17.2119V20.1649V21.9536V21.9659H72.1524H72.1376L72.046 20.897L71.8393 18.4869L71.73 17.2119H77.1575Z" fill="black"/>
<path d="M195.79 25.8093C198.276 25.8093 200.292 23.8747 200.292 21.4881C200.292 19.1016 198.276 17.167 195.79 17.167C193.304 17.167 191.288 19.1016 191.288 21.4881C191.288 23.8747 193.304 25.8093 195.79 25.8093Z" fill="#F3FCFF"/>
<path d="M195.79 31.3976C190.379 31.5232 184.981 30.8231 179.799 29.3234C177.405 28.595 175.173 27.4476 173.214 25.9391C172.467 25.4237 171.844 24.7593 171.389 23.9914C170.935 23.2234 170.658 22.3701 170.58 21.49C170.58 18.6329 173.85 15.8328 179.328 14.0006C184.648 12.3771 190.207 11.5903 195.79 11.6706C201.298 11.5968 206.782 12.3693 212.036 13.9591C214.341 14.6646 216.498 15.7566 218.407 17.1844C219.142 17.6757 219.755 18.3161 220.203 19.0601C220.651 19.8042 220.923 20.6338 221 21.49C221 24.4595 217.345 27.4688 211.456 29.339C206.374 30.7898 201.091 31.4841 195.79 31.3976ZM195.79 13.7379C190.449 13.6693 185.131 14.4173 180.035 15.9538C174.993 17.6425 172.733 19.9517 172.733 21.4848C172.733 23.0888 175.162 25.6107 180.496 27.3616C185.454 28.7891 190.616 29.4535 195.79 29.3303C200.861 29.4174 205.917 28.7587 210.781 27.3772C216.318 25.6159 218.839 23.0906 218.839 21.49C218.748 20.9408 218.54 20.4156 218.227 19.9476C217.914 19.4796 217.503 19.079 217.02 18.7711C215.313 17.5044 213.386 16.5367 211.328 15.9123C206.302 14.3977 201.057 13.6637 195.79 13.7379Z" fill="#F3FCFF"/>
<path d="M185.562 43.0413C184.722 43.0598 183.891 42.8641 183.156 42.4743C180.577 41.0466 179.684 36.9294 180.766 31.4588C181.96 26.2235 184.027 21.2078 186.889 16.6062C189.573 11.9896 193.01 7.81504 197.068 4.24073C198.857 2.67596 200.92 1.42773 203.162 0.553919C203.973 0.189108 204.858 0 205.753 0C206.649 0 207.533 0.189108 208.344 0.553919C211.026 2.03694 211.913 6.57934 210.662 12.4094C209.432 17.3607 207.418 22.1017 204.691 26.467C202.101 31.0291 198.772 35.1673 194.83 38.727C192.977 40.3531 190.826 41.6359 188.486 42.5106C187.549 42.8443 186.561 43.0237 185.562 43.0413ZM188.754 17.6329C186.025 22.0393 184.043 26.8347 182.884 31.8391C181.888 36.8776 182.844 39.9076 184.234 40.6785C185.675 41.4787 189.172 40.7199 193.418 37.1593C197.182 33.749 200.359 29.7878 202.831 25.423C205.443 21.2497 207.375 16.717 208.559 11.9825C209.736 6.49465 208.719 3.13451 207.275 2.33596C206.734 2.13689 206.155 2.04778 205.576 2.07426C204.997 2.10073 204.43 2.24223 203.911 2.4898C201.915 3.2803 200.08 4.40257 198.491 5.80499C194.613 9.22871 191.331 13.2252 188.767 17.6432L188.754 17.6329Z" fill="#F3FCFF"/>
<path d="M206.012 43.0624C203.572 43.0624 200.473 41.6451 197.246 38.9815C193.117 35.3747 189.622 31.1505 186.897 26.4726C184.072 21.9343 182.02 16.9912 180.822 11.8308C180.302 9.56046 180.206 7.21961 180.537 4.91697C180.614 4.06277 180.885 3.23513 181.331 2.49239C181.777 1.74965 182.388 1.10991 183.12 0.618282C185.797 -0.869924 190.34 0.659765 194.977 4.61103C198.832 8.1063 202.105 12.1483 204.683 16.5962C207.507 21.0286 209.58 25.8634 210.824 30.92C211.366 33.2736 211.45 35.7033 211.07 38.0862C210.98 38.9649 210.693 39.8146 210.229 40.5768C209.764 41.3391 209.134 41.996 208.38 42.5024C207.657 42.8874 206.839 43.0806 206.012 43.0624ZM188.761 25.4321C191.375 29.9026 194.713 33.9454 198.651 37.4086C202.701 40.7532 205.913 41.4722 207.294 40.6927C208.735 39.889 209.797 36.6083 208.702 31.3002C207.503 26.4725 205.515 21.8575 202.812 17.6264C200.352 13.3694 197.228 9.49888 193.548 6.14936C189.183 2.42971 185.642 1.59832 184.2 2.40033C183.75 2.751 183.381 3.18734 183.116 3.68179C182.851 4.17624 182.696 4.71806 182.66 5.27303C182.374 7.3266 182.467 9.41253 182.936 11.435C184.089 16.37 186.056 21.0964 188.763 25.4356L188.761 25.4321Z" fill="#F3FCFF"/>
<path d="M87.8745 71.0566H127.16V111.968H87.8745V71.0566Z" fill="#F3FCFF"/>
<path d="M114.264 103.018C114.599 103.726 115.119 104.321 115.764 104.735C116.41 105.148 117.154 105.364 117.912 105.356C119.442 105.356 120.419 104.56 120.419 103.456C120.419 102.141 119.415 101.671 117.731 100.904L116.808 100.492C114.142 99.3098 112.374 97.8297 112.374 94.7C112.374 91.8172 114.479 89.6212 117.78 89.6212C118.849 89.5408 119.917 89.7899 120.85 90.3374C121.784 90.8849 122.542 91.7065 123.03 92.6997L120.144 94.6211C119.956 94.1286 119.629 93.7072 119.206 93.4129C118.783 93.1185 118.284 92.9651 117.775 92.973C117.553 92.9498 117.328 92.9751 117.116 93.0472C116.904 93.1193 116.709 93.2366 116.543 93.3916C116.376 93.5467 116.243 93.7361 116.151 93.9477C116.059 94.1594 116.01 94.3888 116.008 94.6211C116.008 95.7739 116.694 96.2415 118.278 96.9589L119.202 97.3709C122.339 98.7721 124.112 100.2 124.112 103.41C124.112 106.871 121.501 108.767 117.995 108.767C116.629 108.858 115.267 108.535 114.073 107.837C112.879 107.14 111.905 106.097 111.267 104.836L114.264 103.018ZM101.223 103.351C101.803 104.422 102.33 105.328 103.598 105.328C104.811 105.328 105.577 104.834 105.577 102.913V89.8404H109.268V102.964C109.268 106.944 107.023 108.756 103.756 108.756C102.601 108.822 101.453 108.522 100.465 107.896C99.4766 107.27 98.6932 106.347 98.2178 105.249L101.223 103.351Z" fill="black"/>
<path d="M134.622 25.7146C133.988 26.0549 133.293 26.4982 131.902 27.3896C131.374 27.736 130.823 28.0824 130.31 28.4088C130.275 28.3672 130.238 28.3149 130.202 28.2718C127.451 24.8386 122.361 22.4139 122.578 17.8031C122.658 16.1235 123.152 11.7143 132.351 6.35988C139.922 2.00306 145.946 3.21004 146.987 5.88725C148.482 9.7037 143.758 16.8055 135.939 17.8354C135.074 18.0403 134.18 18.0156 133.324 17.763C132.468 17.5104 131.671 17.0363 130.993 16.3759C130.579 15.851 130.517 15.8202 130.364 15.9249C130.113 16.0788 130.275 16.5545 130.364 16.827C130.663 17.4575 131.066 18.0118 131.551 18.4571C132.036 18.9024 132.592 19.2297 133.187 19.4196C136.264 20.1961 139.472 19.8251 142.359 18.3588C147.097 16.2174 150.797 10.2641 149.713 5.27298C148.625 0.212605 141.432 -1.45623 134.626 1.36724C130.364 3.04438 126.426 5.68451 123.036 9.13716C119.287 13.2323 118.693 16.7916 118.936 18.2819C119.809 23.5732 126.056 27.0171 128.561 29.568C128.429 29.6527 128.318 29.722 128.219 29.7882C126.969 30.5133 122.204 33.4214 121.016 36.4974C119.668 39.9828 121.233 42.4815 122.266 42.8171C123.824 43.2528 125.46 43.1095 126.944 42.4074C128.429 41.7052 129.689 40.4792 130.548 38.9006C131.277 37.5915 131.725 36.096 131.854 34.5414C131.982 32.9868 131.787 31.4191 131.285 29.9714C131.581 29.6956 131.897 29.4499 132.229 29.237C132.867 28.7967 133.475 28.3626 134.014 28.027C135.86 27.0172 137.875 26.4972 139.914 26.5044C144.194 27.0925 145.039 30.21 144.877 31.5232C144.801 31.9891 144.641 32.4307 144.406 32.8181C144.172 33.2056 143.87 33.5299 143.519 33.7694C143.222 33.9895 143.123 34.0634 143.15 34.2204C143.185 34.4514 143.329 34.4406 143.581 34.399C144.224 34.1617 144.79 33.7029 145.206 33.0827C145.622 32.4626 145.867 31.7102 145.909 30.9243C146.041 27.8453 143.527 24.4676 139.076 24.4984C137.743 24.5011 136.423 24.8081 135.191 25.4021C134.994 25.4976 134.802 25.6002 134.615 25.71L134.622 25.7146ZM128.26 37.7829C126.839 39.5887 124.861 40.2707 124.007 39.6934C123.084 39.0776 123.449 36.4065 125.193 34.496C126.227 33.4091 127.343 32.4356 128.529 31.5879C128.736 31.4339 129.042 31.2307 129.41 30.9721C129.473 30.9305 129.509 30.9089 129.509 30.9089L129.725 30.755C130.036 31.9729 130.064 33.2655 129.807 34.5004C129.55 35.7353 129.016 36.8681 128.26 37.7829Z" fill="#F3FCFF"/>
</svg>
