<svg width="47" height="48" viewBox="0 0 47 48" fill="none" xmlns="http://www.w3.org/2000/svg">
<path fill-rule="evenodd" clip-rule="evenodd" d="M2.62207 13.1887C6.46756 5.26333 14.6227 0 23.9455 0C30.3889 0 35.9 2.39199 39.975 5.98887C40.3208 6.2941 40.5251 6.72876 40.5395 7.18988C40.5539 7.65099 40.3771 8.09755 40.051 8.42377L33.814 14.6631C33.1921 15.2852 32.1945 15.3184 31.5326 14.739C29.9303 13.3365 27.6333 11.8101 23.9455 11.8101C19.0665 11.8101 14.9799 14.7342 13.2299 18.8191C13.1876 18.9178 13.136 19.0119 13.0759 19.1003C13.0729 19.1109 13.0693 19.1238 13.0652 19.1385C13.0438 19.2149 13.0085 19.341 12.971 19.4572C12.9304 19.5833 12.8769 19.7326 12.8041 19.894C12.4438 21.0144 12.2512 22.3562 12.2512 23.7316C12.2512 25.1442 12.4544 26.5214 12.8337 27.6597L12.8401 27.6788C14.4048 32.5703 18.894 35.8759 23.9455 35.8759C27.0046 35.8759 29.3042 35.0586 30.7393 33.9818C30.7562 33.9691 30.7734 33.9568 30.7908 33.9447C32.43 32.8095 33.4727 31.245 34.0365 29.8594H23.9455C23.0228 29.8594 22.2749 29.1112 22.2749 28.1882V19.9434C22.2749 19.0204 23.0228 18.2722 23.9455 18.2722H44.8839C45.7005 18.2722 46.3975 18.8628 46.5318 19.6687L46.5358 19.6931C46.7584 21.029 47 22.4789 47 24.4001C47 31.6965 44.4077 37.9675 39.7754 42.122C35.866 45.7811 30.3236 47.9088 23.9455 47.9088C14.6227 47.9088 6.46758 42.6455 2.62208 34.7202C0.963466 31.3987 0 27.8049 0 23.9544C0 20.1039 0.963459 16.5101 2.62207 13.1887ZM23.9455 3.34247C15.8975 3.34247 8.90841 7.87967 5.6241 14.6561L5.61521 14.6744C4.15811 17.5897 3.34123 20.6778 3.34123 23.9544C3.34123 27.231 4.158 30.3191 5.6151 33.2344L5.62421 33.2526C8.90853 40.0291 15.8975 44.5663 23.9455 44.5663C29.5882 44.5663 34.2865 42.6882 37.5043 39.6704L37.533 39.6441C41.356 36.2223 43.6588 30.9116 43.6588 24.4001C43.6588 23.3462 43.575 22.4651 43.456 21.6147H25.6161V26.517H36.1967C36.6719 26.517 37.1246 26.7194 37.4415 27.0736C37.7584 27.4278 37.9096 27.9003 37.8571 28.3728C37.5882 30.7938 36.0398 34.3618 32.7185 36.6749C30.5909 38.2607 27.5543 39.2184 23.9455 39.2184C17.4174 39.2184 11.6628 34.952 9.66075 28.7071C9.15122 27.1738 8.90995 25.435 8.90995 23.7316C8.90995 22.0246 9.15222 20.2821 9.66393 18.7464C9.68893 18.6714 9.71922 18.5983 9.75457 18.5275C9.77805 18.4806 9.78893 18.4424 9.85268 18.2191L9.86523 18.1752C9.89469 18.072 9.94765 17.8893 10.03 17.6998C10.0791 17.5869 10.1477 17.4493 10.2452 17.3047C12.5506 12.1347 17.7656 8.4676 23.9455 8.4676C27.8268 8.4676 30.5674 9.81377 32.5109 11.2397L36.3761 7.37304C33.0525 4.91718 28.8231 3.34247 23.9455 3.34247Z" fill="white"/>
<path fill-rule="evenodd" clip-rule="evenodd" d="M2.62207 13.1887C6.46756 5.26333 14.6227 0 23.9455 0C30.3889 0 35.9 2.39199 39.975 5.98887C40.3208 6.2941 40.5251 6.72876 40.5395 7.18988C40.5539 7.65099 40.3771 8.09755 40.051 8.42377L33.814 14.6631C33.1921 15.2852 32.1945 15.3184 31.5326 14.739C29.9303 13.3365 27.6333 11.8101 23.9455 11.8101C19.0665 11.8101 14.9799 14.7342 13.2299 18.8191C13.1876 18.9178 13.136 19.0119 13.0759 19.1003C13.0729 19.1109 13.0693 19.1238 13.0652 19.1385C13.0438 19.2149 13.0085 19.341 12.971 19.4572C12.9304 19.5833 12.8769 19.7326 12.8041 19.894C12.4438 21.0144 12.2512 22.3562 12.2512 23.7316C12.2512 25.1442 12.4544 26.5214 12.8337 27.6597L12.8401 27.6788C14.4048 32.5703 18.894 35.8759 23.9455 35.8759C27.0046 35.8759 29.3042 35.0586 30.7393 33.9818C30.7562 33.9691 30.7734 33.9568 30.7908 33.9447C32.43 32.8095 33.4727 31.245 34.0365 29.8594H23.9455C23.0228 29.8594 22.2749 29.1112 22.2749 28.1882V19.9434C22.2749 19.0204 23.0228 18.2722 23.9455 18.2722H44.8839C45.7005 18.2722 46.3975 18.8628 46.5318 19.6687L46.5358 19.6931C46.7584 21.029 47 22.4789 47 24.4001C47 31.6965 44.4077 37.9675 39.7754 42.122C35.866 45.7811 30.3236 47.9088 23.9455 47.9088C14.6227 47.9088 6.46758 42.6455 2.62208 34.7202C0.963466 31.3987 0 27.8049 0 23.9544C0 20.1039 0.963459 16.5101 2.62207 13.1887ZM23.9455 3.34247C15.8975 3.34247 8.90841 7.87967 5.6241 14.6561L5.61521 14.6744C4.15811 17.5897 3.34123 20.6778 3.34123 23.9544C3.34123 27.231 4.158 30.3191 5.6151 33.2344L5.62421 33.2526C8.90853 40.0291 15.8975 44.5663 23.9455 44.5663C29.5882 44.5663 34.2865 42.6882 37.5043 39.6704L37.533 39.6441C41.356 36.2223 43.6588 30.9116 43.6588 24.4001C43.6588 23.3462 43.575 22.4651 43.456 21.6147H25.6161V26.517H36.1967C36.6719 26.517 37.1246 26.7194 37.4415 27.0736C37.7584 27.4278 37.9096 27.9003 37.8571 28.3728C37.5882 30.7938 36.0398 34.3618 32.7185 36.6749C30.5909 38.2607 27.5543 39.2184 23.9455 39.2184C17.4174 39.2184 11.6628 34.952 9.66075 28.7071C9.15122 27.1738 8.90995 25.435 8.90995 23.7316C8.90995 22.0246 9.15222 20.2821 9.66393 18.7464C9.68893 18.6714 9.71922 18.5983 9.75457 18.5275C9.77805 18.4806 9.78893 18.4424 9.85268 18.2191L9.86523 18.1752C9.89469 18.072 9.94765 17.8893 10.03 17.6998C10.0791 17.5869 10.1477 17.4493 10.2452 17.3047C12.5506 12.1347 17.7656 8.4676 23.9455 8.4676C27.8268 8.4676 30.5674 9.81377 32.5109 11.2397L36.3761 7.37304C33.0525 4.91718 28.8231 3.34247 23.9455 3.34247Z" fill="white"/>
</svg>
