<svg width="12" height="13" viewBox="0 0 12 13" fill="none" xmlns="http://www.w3.org/2000/svg">
<path d="M11.7998 8.49139L8.40152 6.5L11.7998 4.50861C11.9913 4.39639 12.0568 4.14807 11.9463 3.95357L11.1458 2.54617C11.0353 2.35193 10.7905 2.28516 10.599 2.39738L7.20076 4.38877V0.40625C7.20076 0.181797 7.02151 0 6.80051 0H5.19949C4.97849 0 4.79924 0.181797 4.79924 0.40625V4.38902L1.40096 2.39764C1.20945 2.28541 0.964702 2.35219 0.854201 2.54643L0.0536934 3.95357C-0.0568077 4.14781 0.00869297 4.39639 0.200195 4.50861L3.59848 6.5L0.200195 8.49139C0.00869297 8.60361 -0.0568077 8.85219 0.0536934 9.04643L0.854201 10.4538C0.964702 10.6481 1.20945 10.7146 1.40096 10.6026L4.79924 8.61123V12.5938C4.79924 12.8182 4.97849 13 5.19949 13H6.80051C7.02151 13 7.20076 12.8182 7.20076 12.5938V8.61098L10.599 10.6024C10.7905 10.7146 11.0353 10.6481 11.1458 10.4536L11.9463 9.04617C12.0568 8.85193 11.9913 8.60361 11.7998 8.49139Z" fill="white"/>
</svg>
