<svg width="52" height="44" viewBox="0 0 52 44" fill="none" xmlns="http://www.w3.org/2000/svg">
<path d="M13 4C10.4141 4 7.93419 5.26428 6.10571 7.51472C4.27723 9.76516 3.25 12.8174 3.25 16V40H22.75V16C22.75 12.8174 21.7228 9.76516 19.8943 7.51472C18.0658 5.26428 15.5859 4 13 4ZM13 0H39C42.4478 0 45.7544 1.68571 48.1924 4.68629C50.6304 7.68687 52 11.7565 52 16V40C52 41.0609 51.6576 42.0783 51.0481 42.8284C50.4386 43.5786 49.612 44 48.75 44H3.25C2.38805 44 1.5614 43.5786 0.951903 42.8284C0.34241 42.0783 0 41.0609 0 40V16C0 11.7565 1.36964 7.68687 3.80761 4.68629C6.24558 1.68571 9.55219 0 13 0ZM21.5995 4C22.9826 5.50156 24.0904 7.34816 24.8491 9.41712C25.6078 11.4861 26.0001 13.7301 26 16V40H48.75V16C48.75 12.8174 47.7228 9.76516 45.8943 7.51472C44.0658 5.26428 41.5859 4 39 4H21.5995Z" fill="white"/>
<path d="M38.3273 22H29.25V18H45.5C45.931 18 46.3443 18.2107 46.649 18.5858C46.9538 18.9609 47.125 19.4696 47.125 20V24C47.125 24.5304 46.9538 25.0391 46.649 25.4142C46.3443 25.7893 45.931 26 45.5 26H42.25C42.0365 26.0005 41.8249 25.9491 41.6275 25.8489C41.4301 25.7487 41.2507 25.6016 41.0995 25.416L38.3273 22ZM16.25 16C16.25 18.208 14.794 16 13 16C11.206 16 9.75 18.208 9.75 16C9.75 14.9391 10.0924 13.9217 10.7019 13.1716C11.3114 12.4214 12.138 12 13 12C13.862 12 14.6886 12.4214 15.2981 13.1716C15.9076 13.9217 16.25 14.9391 16.25 16Z" fill="white"/>
</svg>
