<svg width="424" height="456" viewBox="0 0 424 456" fill="none" xmlns="http://www.w3.org/2000/svg">
<path d="M290 42L213 9L134 42M134 42L213 79L143 115L213 151L143 187L213 223M134 42V259M213 223L134 259M213 223L290 259L213 296L134 259" stroke="url(#paint0_linear_11_2)" stroke-width="15"/>
<circle cx="290" cy="42" r="16" fill="#56D4EE"/>
<circle cx="291" cy="259" r="16" fill="#7489FE"/>
<path d="M2.976 362.44C2.976 358.28 3.712 354.216 5.184 350.248C6.72 346.216 8.928 342.568 11.808 339.304C14.688 335.976 18.208 333.352 22.368 331.432C26.528 329.448 31.264 328.456 36.576 328.456C42.848 328.456 48.256 329.832 52.8 332.584C57.408 335.336 60.832 338.92 63.072 343.336L52.896 350.344C51.744 347.784 50.24 345.768 48.384 344.296C46.528 342.76 44.544 341.704 42.432 341.128C40.32 340.488 38.24 340.168 36.192 340.168C32.864 340.168 29.952 340.84 27.456 342.184C25.024 343.528 22.976 345.288 21.312 347.464C19.648 349.64 18.4 352.072 17.568 354.76C16.8 357.448 16.416 360.136 16.416 362.824C16.416 365.832 16.896 368.744 17.856 371.56C18.816 374.312 20.16 376.776 21.888 378.952C23.68 381.064 25.792 382.76 28.224 384.04C30.72 385.256 33.44 385.864 36.384 385.864C38.496 385.864 40.64 385.512 42.816 384.808C44.992 384.104 47.008 382.984 48.864 381.448C50.72 379.912 52.16 377.928 53.184 375.496L64.032 381.736C62.688 385.128 60.48 388.008 57.408 390.376C54.4 392.744 51.008 394.536 47.232 395.752C43.456 396.968 39.712 397.576 36 397.576C31.136 397.576 26.688 396.584 22.656 394.6C18.624 392.552 15.136 389.864 12.192 386.536C9.312 383.144 7.04 379.368 5.376 375.208C3.776 370.984 2.976 366.728 2.976 362.44ZM68.2125 382.12C68.2125 378.856 69.1085 376.008 70.9005 373.576C72.7565 371.08 75.3165 369.16 78.5805 367.816C81.8445 366.472 85.5885 365.8 89.8125 365.8C91.9245 365.8 94.0685 365.96 96.2445 366.28C98.4205 366.6 100.309 367.112 101.909 367.816V365.128C101.909 361.928 100.949 359.464 99.0285 357.736C97.1725 356.008 94.3885 355.144 90.6765 355.144C87.9245 355.144 85.3005 355.624 82.8045 356.584C80.3085 357.544 77.6845 358.952 74.9325 360.808L70.8045 352.36C74.1325 350.184 77.5245 348.552 80.9805 347.464C84.5005 346.376 88.1805 345.832 92.0205 345.832C99.1885 345.832 104.757 347.624 108.725 351.208C112.757 354.792 114.773 359.912 114.773 366.568V382.6C114.773 383.944 114.997 384.904 115.445 385.48C115.957 386.056 116.757 386.408 117.845 386.536V397C116.693 397.192 115.637 397.352 114.677 397.48C113.781 397.608 113.013 397.672 112.373 397.672C109.813 397.672 107.861 397.096 106.517 395.944C105.237 394.792 104.437 393.384 104.117 391.72L103.829 389.128C101.653 391.944 98.9325 394.12 95.6685 395.656C92.4045 397.192 89.0765 397.96 85.6845 397.96C82.3565 397.96 79.3485 397.288 76.6605 395.944C74.0365 394.536 71.9565 392.648 70.4205 390.28C68.9485 387.848 68.2125 385.128 68.2125 382.12ZM99.5085 384.712C100.213 383.944 100.789 383.176 101.237 382.408C101.685 381.64 101.909 380.936 101.909 380.296V375.208C100.373 374.568 98.7085 374.088 96.9165 373.768C95.1245 373.384 93.4285 373.192 91.8285 373.192C88.5005 373.192 85.7485 373.928 83.5725 375.4C81.4605 376.808 80.4045 378.696 80.4045 381.064C80.4045 382.344 80.7565 383.56 81.4605 384.712C82.1645 385.864 83.1885 386.792 84.5325 387.496C85.8765 388.2 87.4765 388.552 89.3325 388.552C91.2525 388.552 93.1405 388.2 94.9965 387.496C96.8525 386.728 98.3565 385.8 99.5085 384.712ZM204.938 397H192.074V368.776C192.074 364.808 191.37 361.896 189.962 360.04C188.618 358.12 186.73 357.16 184.298 357.16C181.802 357.16 179.402 358.152 177.098 360.136C174.858 362.056 173.258 364.584 172.298 367.72V397H159.434V368.776C159.434 364.744 158.73 361.8 157.322 359.944C155.978 358.088 154.09 357.16 151.658 357.16C149.162 357.16 146.762 358.12 144.458 360.04C142.218 361.96 140.618 364.488 139.658 367.624V397H126.794V346.696H138.41V356.008C140.33 352.744 142.89 350.248 146.09 348.52C149.29 346.728 152.97 345.832 157.13 345.832C161.29 345.832 164.522 346.856 166.826 348.904C169.194 350.952 170.698 353.48 171.338 356.488C173.386 353.032 175.978 350.408 179.114 348.616C182.314 346.76 185.898 345.832 189.866 345.832C193.002 345.832 195.53 346.408 197.45 347.56C199.434 348.648 200.97 350.152 202.058 352.072C203.146 353.928 203.882 356.04 204.266 358.408C204.714 360.776 204.938 363.176 204.938 365.608V397ZM259.83 340.456H238.038V397H224.886V340.456H203.094V328.84H259.83V340.456ZM280.903 397.96C276.871 397.96 273.223 397.288 269.959 395.944C266.695 394.536 263.911 392.648 261.607 390.28C259.303 387.848 257.511 385.096 256.231 382.024C255.015 378.888 254.407 375.592 254.407 372.136C254.407 367.336 255.463 362.952 257.575 358.984C259.751 355.016 262.823 351.848 266.791 349.48C270.823 347.048 275.559 345.832 280.999 345.832C286.503 345.832 291.207 347.048 295.111 349.48C299.015 351.848 301.991 355.016 304.039 358.984C306.151 362.888 307.207 367.112 307.207 371.656C307.207 372.424 307.175 373.224 307.111 374.056C307.047 374.824 306.983 375.464 306.919 375.976H268.039C268.295 378.536 269.031 380.776 270.247 382.696C271.527 384.616 273.127 386.088 275.047 387.112C277.031 388.072 279.143 388.552 281.383 388.552C283.943 388.552 286.343 387.944 288.583 386.728C290.887 385.448 292.455 383.784 293.287 381.736L304.327 384.808C303.111 387.368 301.351 389.64 299.047 391.624C296.807 393.608 294.151 395.176 291.079 396.328C288.007 397.416 284.615 397.96 280.903 397.96ZM267.751 367.816H294.055C293.799 365.256 293.063 363.048 291.847 361.192C290.695 359.272 289.159 357.8 287.239 356.776C285.319 355.688 283.175 355.144 280.807 355.144C278.503 355.144 276.391 355.688 274.471 356.776C272.615 357.8 271.079 359.272 269.863 361.192C268.711 363.048 268.007 365.256 267.751 367.816ZM338.468 397.96C334.372 397.96 330.692 397.288 327.428 395.944C324.164 394.536 321.38 392.616 319.076 390.184C316.772 387.688 314.98 384.872 313.7 381.736C312.484 378.6 311.876 375.304 311.876 371.848C311.876 367.112 312.932 362.792 315.044 358.888C317.22 354.92 320.292 351.752 324.26 349.384C328.228 347.016 332.932 345.832 338.372 345.832C343.812 345.832 348.484 347.016 352.388 349.384C356.292 351.752 359.204 354.856 361.124 358.696L348.548 362.536C347.46 360.68 346.02 359.272 344.228 358.312C342.436 357.288 340.452 356.776 338.276 356.776C335.844 356.776 333.604 357.416 331.556 358.696C329.572 359.912 328.004 361.672 326.852 363.976C325.7 366.216 325.124 368.84 325.124 371.848C325.124 374.792 325.7 377.416 326.852 379.72C328.068 381.96 329.668 383.752 331.652 385.096C333.636 386.376 335.844 387.016 338.276 387.016C339.812 387.016 341.252 386.76 342.596 386.248C344.004 385.736 345.252 385.032 346.34 384.136C347.428 383.24 348.228 382.216 348.74 381.064L361.316 384.904C360.164 387.4 358.468 389.64 356.228 391.624C354.052 393.608 351.46 395.176 348.452 396.328C345.508 397.416 342.18 397.96 338.468 397.96ZM415.983 397H403.119V368.776C403.119 364.872 402.351 361.96 400.815 360.04C399.343 358.12 397.295 357.16 394.671 357.16C393.135 357.16 391.503 357.608 389.775 358.504C388.047 359.4 386.479 360.648 385.071 362.248C383.727 363.784 382.735 365.576 382.095 367.624V397H369.231V326.92H382.095V356.008C383.951 352.808 386.479 350.312 389.679 348.52C392.879 346.728 396.367 345.832 400.143 345.832C403.407 345.832 406.063 346.408 408.111 347.56C410.159 348.648 411.759 350.152 412.911 352.072C414.063 353.928 414.863 356.04 415.311 358.408C415.759 360.712 415.983 363.112 415.983 365.608V397Z" fill="#F3FCFF"/>
<defs>
<linearGradient id="paint0_linear_11_2" x1="212" y1="9" x2="212" y2="296" gradientUnits="userSpaceOnUse">
<stop stop-color="#51DEEB"/>
<stop offset="1" stop-color="#777FFF"/>
</linearGradient>
</defs>
</svg>
