<svg width="712" height="305" viewBox="0 0 712 305" fill="none" xmlns="http://www.w3.org/2000/svg">
<path d="M164 42L87 9L8 42M8 42L87 79L17 115L87 151L17 187L87 223M8 42V259M87 223L8 259M87 223L164 259L87 296L8 259" stroke="url(#paint0_linear_11_2)" stroke-width="15"/>
<circle cx="164" cy="42" r="16" fill="#56D4EE"/>
<circle cx="165" cy="259" r="16" fill="#7489FE"/>
<path d="M217.41 157.4C217.41 152.633 218.253 147.977 219.94 143.43C221.7 138.81 224.23 134.63 227.53 130.89C230.83 127.077 234.863 124.07 239.63 121.87C244.397 119.597 249.823 118.46 255.91 118.46C263.097 118.46 269.293 120.037 274.5 123.19C279.78 126.343 283.703 130.45 286.27 135.51L274.61 143.54C273.29 140.607 271.567 138.297 269.44 136.61C267.313 134.85 265.04 133.64 262.62 132.98C260.2 132.247 257.817 131.88 255.47 131.88C251.657 131.88 248.32 132.65 245.46 134.19C242.673 135.73 240.327 137.747 238.42 140.24C236.513 142.733 235.083 145.52 234.13 148.6C233.25 151.68 232.81 154.76 232.81 157.84C232.81 161.287 233.36 164.623 234.46 167.85C235.56 171.003 237.1 173.827 239.08 176.32C241.133 178.74 243.553 180.683 246.34 182.15C249.2 183.543 252.317 184.24 255.69 184.24C258.11 184.24 260.567 183.837 263.06 183.03C265.553 182.223 267.863 180.94 269.99 179.18C272.117 177.42 273.767 175.147 274.94 172.36L287.37 179.51C285.83 183.397 283.3 186.697 279.78 189.41C276.333 192.123 272.447 194.177 268.12 195.57C263.793 196.963 259.503 197.66 255.25 197.66C249.677 197.66 244.58 196.523 239.96 194.25C235.34 191.903 231.343 188.823 227.97 185.01C224.67 181.123 222.067 176.797 220.16 172.03C218.327 167.19 217.41 162.313 217.41 157.4ZM292.16 179.95C292.16 176.21 293.187 172.947 295.24 170.16C297.367 167.3 300.3 165.1 304.04 163.56C307.78 162.02 312.07 161.25 316.91 161.25C319.33 161.25 321.787 161.433 324.28 161.8C326.773 162.167 328.937 162.753 330.77 163.56V160.48C330.77 156.813 329.67 153.99 327.47 152.01C325.343 150.03 322.153 149.04 317.9 149.04C314.747 149.04 311.74 149.59 308.88 150.69C306.02 151.79 303.013 153.403 299.86 155.53L295.13 145.85C298.943 143.357 302.83 141.487 306.79 140.24C310.823 138.993 315.04 138.37 319.44 138.37C327.653 138.37 334.033 140.423 338.58 144.53C343.2 148.637 345.51 154.503 345.51 162.13V180.5C345.51 182.04 345.767 183.14 346.28 183.8C346.867 184.46 347.783 184.863 349.03 185.01V197C347.71 197.22 346.5 197.403 345.4 197.55C344.373 197.697 343.493 197.77 342.76 197.77C339.827 197.77 337.59 197.11 336.05 195.79C334.583 194.47 333.667 192.857 333.3 190.95L332.97 187.98C330.477 191.207 327.36 193.7 323.62 195.46C319.88 197.22 316.067 198.1 312.18 198.1C308.367 198.1 304.92 197.33 301.84 195.79C298.833 194.177 296.45 192.013 294.69 189.3C293.003 186.513 292.16 183.397 292.16 179.95ZM328.02 182.92C328.827 182.04 329.487 181.16 330 180.28C330.513 179.4 330.77 178.593 330.77 177.86V172.03C329.01 171.297 327.103 170.747 325.05 170.38C322.997 169.94 321.053 169.72 319.22 169.72C315.407 169.72 312.253 170.563 309.76 172.25C307.34 173.863 306.13 176.027 306.13 178.74C306.13 180.207 306.533 181.6 307.34 182.92C308.147 184.24 309.32 185.303 310.86 186.11C312.4 186.917 314.233 187.32 316.36 187.32C318.56 187.32 320.723 186.917 322.85 186.11C324.977 185.23 326.7 184.167 328.02 182.92ZM448.824 197H434.084V164.66C434.084 160.113 433.278 156.777 431.664 154.65C430.124 152.45 427.961 151.35 425.174 151.35C422.314 151.35 419.564 152.487 416.924 154.76C414.358 156.96 412.524 159.857 411.424 163.45V197H396.684V164.66C396.684 160.04 395.878 156.667 394.264 154.54C392.724 152.413 390.561 151.35 387.774 151.35C384.914 151.35 382.164 152.45 379.524 154.65C376.958 156.85 375.124 159.747 374.024 163.34V197H359.284V139.36H372.594V150.03C374.794 146.29 377.728 143.43 381.394 141.45C385.061 139.397 389.278 138.37 394.044 138.37C398.811 138.37 402.514 139.543 405.154 141.89C407.868 144.237 409.591 147.133 410.324 150.58C412.671 146.62 415.641 143.613 419.234 141.56C422.901 139.433 427.008 138.37 431.554 138.37C435.148 138.37 438.044 139.03 440.244 140.35C442.518 141.597 444.278 143.32 445.524 145.52C446.771 147.647 447.614 150.067 448.054 152.78C448.568 155.493 448.824 158.243 448.824 161.03V197ZM511.722 132.21H486.752V197H471.682V132.21H446.712V118.9H511.722V132.21ZM535.868 198.1C531.248 198.1 527.068 197.33 523.328 195.79C519.588 194.177 516.398 192.013 513.758 189.3C511.118 186.513 509.064 183.36 507.598 179.84C506.204 176.247 505.508 172.47 505.508 168.51C505.508 163.01 506.718 157.987 509.138 153.44C511.631 148.893 515.151 145.263 519.698 142.55C524.318 139.763 529.744 138.37 535.978 138.37C542.284 138.37 547.674 139.763 552.148 142.55C556.621 145.263 560.031 148.893 562.378 153.44C564.798 157.913 566.008 162.753 566.008 167.96C566.008 168.84 565.971 169.757 565.898 170.71C565.824 171.59 565.751 172.323 565.678 172.91H521.128C521.421 175.843 522.264 178.41 523.658 180.61C525.124 182.81 526.958 184.497 529.158 185.67C531.431 186.77 533.851 187.32 536.418 187.32C539.351 187.32 542.101 186.623 544.668 185.23C547.308 183.763 549.104 181.857 550.058 179.51L562.708 183.03C561.314 185.963 559.298 188.567 556.658 190.84C554.091 193.113 551.048 194.91 547.528 196.23C544.008 197.477 540.121 198.1 535.868 198.1ZM520.798 163.56H550.938C550.644 160.627 549.801 158.097 548.408 155.97C547.088 153.77 545.328 152.083 543.128 150.91C540.928 149.663 538.471 149.04 535.758 149.04C533.118 149.04 530.698 149.663 528.498 150.91C526.371 152.083 524.611 153.77 523.218 155.97C521.898 158.097 521.091 160.627 520.798 163.56ZM601.827 198.1C597.134 198.1 592.917 197.33 589.177 195.79C585.437 194.177 582.247 191.977 579.607 189.19C576.967 186.33 574.914 183.103 573.447 179.51C572.054 175.917 571.357 172.14 571.357 168.18C571.357 162.753 572.567 157.803 574.987 153.33C577.481 148.783 581.001 145.153 585.547 142.44C590.094 139.727 595.484 138.37 601.717 138.37C607.951 138.37 613.304 139.727 617.777 142.44C622.251 145.153 625.587 148.71 627.787 153.11L613.377 157.51C612.131 155.383 610.481 153.77 608.427 152.67C606.374 151.497 604.101 150.91 601.607 150.91C598.821 150.91 596.254 151.643 593.907 153.11C591.634 154.503 589.837 156.52 588.517 159.16C587.197 161.727 586.537 164.733 586.537 168.18C586.537 171.553 587.197 174.56 588.517 177.2C589.911 179.767 591.744 181.82 594.017 183.36C596.291 184.827 598.821 185.56 601.607 185.56C603.367 185.56 605.017 185.267 606.557 184.68C608.171 184.093 609.601 183.287 610.847 182.26C612.094 181.233 613.011 180.06 613.597 178.74L628.007 183.14C626.687 186 624.744 188.567 622.177 190.84C619.684 193.113 616.714 194.91 613.267 196.23C609.894 197.477 606.081 198.1 601.827 198.1ZM690.647 197H675.907V164.66C675.907 160.187 675.027 156.85 673.267 154.65C671.581 152.45 669.234 151.35 666.227 151.35C664.467 151.35 662.597 151.863 660.617 152.89C658.637 153.917 656.841 155.347 655.227 157.18C653.687 158.94 652.551 160.993 651.817 163.34V197H637.077V116.7H651.817V150.03C653.944 146.363 656.841 143.503 660.507 141.45C664.174 139.397 668.171 138.37 672.497 138.37C676.237 138.37 679.281 139.03 681.627 140.35C683.974 141.597 685.807 143.32 687.127 145.52C688.447 147.647 689.364 150.067 689.877 152.78C690.391 155.42 690.647 158.17 690.647 161.03V197Z" fill="#F3FCFF"/>
<defs>
<linearGradient id="paint0_linear_11_2" x1="86" y1="9" x2="86" y2="296" gradientUnits="userSpaceOnUse">
<stop stop-color="#51DEEB"/>
<stop offset="1" stop-color="#777FFF"/>
</linearGradient>
</defs>
</svg>
